<svg width="56" height="53" viewBox="0 0 56 53" fill="none" xmlns="http://www.w3.org/2000/svg">
<path fill-rule="evenodd" clip-rule="evenodd" d="M2.5 0.579468C1.11929 0.579468 0 1.62721 0 2.91967V6.48826L4.26376 6.48826L24.1611 6.48826C35.9675 6.66601 45.4798 15.6861 45.4798 26.7872C45.4798 37.8883 35.9675 46.9084 24.1611 47.0861V47.0914H4.26376L1.96619e-05 47.0914V35.7758H4.26376H24.1611V39.7696H4.26376L4.26376 43.0977H24.1611V43.0917C33.6125 42.9145 41.2161 35.6826 41.2161 26.7872C41.2161 17.8918 33.6125 10.6599 24.1611 10.4827V10.482L4.26376 10.482L4.26376 21.132H24.1611C27.4519 21.1815 30.1033 23.6956 30.1033 26.7898C30.1033 29.884 27.4519 32.3982 24.1611 32.4477H8.98644C8.48535 32.8619 7.82714 33.1133 7.10625 33.1133C5.53639 33.1133 4.26376 31.9213 4.26376 30.4508C4.26376 28.9803 5.53639 27.7883 7.10625 27.7883C7.82713 27.7883 8.48534 28.0397 8.98642 28.4539L24.1611 28.4539V28.4206C24.972 28.2665 25.5824 27.5949 25.5824 26.7899C25.5824 25.9848 24.972 25.3132 24.1611 25.1591V25.1258L4.26373 25.1258H0V50.6598C0 51.9523 1.11929 53 2.5 53H53.5C54.8807 53 56 51.9523 56 50.6598V2.91967C56 1.62721 54.8807 0.579468 53.5 0.579468H2.5ZM24.1611 13.8101C31.7104 13.9239 37.7929 19.6915 37.7929 26.7899C37.7929 33.8882 31.7104 39.6558 24.1611 39.7696L24.1613 35.7698C29.2949 35.5946 33.3992 31.6412 33.3992 26.7899C33.3992 21.9385 29.2949 17.9851 24.1613 17.81L24.1611 13.8101ZM24.1611 13.8101V17.8039L13.2502 17.8039C12.7491 18.2182 12.0909 18.4695 11.37 18.4695C9.80013 18.4695 8.52751 17.2775 8.52751 15.807C8.52751 14.3366 9.80013 13.1445 11.37 13.1445C12.0909 13.1445 12.7491 13.3959 13.2502 13.8101L24.1611 13.8101ZM8.52748 30.4508C8.52748 31.186 7.89117 31.782 7.10624 31.782C6.32131 31.782 5.68499 31.186 5.68499 30.4508C5.68499 29.7156 6.32131 29.1195 7.10624 29.1195C7.89117 29.1195 8.52748 29.7156 8.52748 30.4508ZM12.7912 15.807C12.7912 16.5423 12.1549 17.1383 11.37 17.1383C10.5851 17.1383 9.94874 16.5423 9.94874 15.807C9.94874 15.0718 10.5851 14.4758 11.37 14.4758C12.1549 14.4758 12.7912 15.0718 12.7912 15.807Z" fill="url(#paint0_linear_415_517)"/>
<defs>
<linearGradient id="paint0_linear_415_517" x1="25.9652" y1="1.02544" x2="26.3827" y2="52.3129" gradientUnits="userSpaceOnUse">
<stop stop-color="#5A5BE1"/>
<stop offset="1" stop-color="#AF1FC7"/>
</linearGradient>
</defs>
</svg>
